<?xml version="1.0" encoding="utf-8"?>
<!-- Generator: Adobe Illustrator 21.1.0, SVG Export Plug-In . SVG Version: 6.00 Build 0)  -->
<svg version="1.1" xmlns="http://www.w3.org/2000/svg" xmlns:xlink="http://www.w3.org/1999/xlink" x="0px" y="0px"
	 viewBox="0 0 20 20" style="enable-background:new 0 0 20 20;" xml:space="preserve">
<style type="text/css">
	.st0{enable-background:new    ;}
	.st1{fill:#A7A7A7;}
</style>
<g id="bot_comment" class="st0">
	<g>
		<g>
			<path class="st1" d="M17.1,7.9c0.5,0,0.8,0.6,0.8,1.2v3.5c0,0.7-0.4,1.2-0.8,1.2h-0.5h-0.5h-0.5H9.3c-0.5,0-0.8-0.6-0.8-1.2V12
				h2.3c1.6,0,2.8-1.5,2.8-3.2V7.9H17.1 M17.1,6.9h-4.6v1.8c0,1.2-0.8,2.2-1.8,2.2H7.4v1.6c0,1.2,0.8,2.2,1.8,2.2h6.3L15.2,17
				l1.4-2.1h0.5c1,0,1.8-1,1.8-2.2V9.1C19,7.9,18.2,6.9,17.1,6.9L17.1,6.9z"/>
		</g>
	</g>
</g>
<g id="top_comment" class="st0">
	<g id="Фигура_1_копия">
		<g>
			<path class="st1" d="M11.7,5c0.5,0,0.8,0.6,0.8,1.2v3.5c0,0.7-0.4,1.2-0.8,1.2H5.4H4.2H3.9C3.4,11,3,10.4,3,9.7V6.2
				C3,5.6,3.4,5,3.9,5H11.7 M11.7,4H3.9C2.8,4,2,5,2,6.2v3.5C2,11,2.8,12,3.9,12h0.5l1.4,2.1L5.4,12h6.3c1,0,1.8-1,1.8-2.2V6.2
				C13.6,5,12.7,4,11.7,4L11.7,4z"/>
		</g>
	</g>
</g>
</svg>
