<?xml version="1.0" encoding="utf-8"?>
<!-- Generator: Adobe Illustrator 21.1.0, SVG Export Plug-In . SVG Version: 6.00 Build 0)  -->
<svg version="1.1" id="account_1_" xmlns="http://www.w3.org/2000/svg" xmlns:xlink="http://www.w3.org/1999/xlink" x="0px" y="0px"
	 viewBox="0 0 20 20" style="enable-background:new 0 0 20 20;" xml:space="preserve">
<style type="text/css">
	.st0{fill-rule:evenodd;clip-rule:evenodd;fill:#141414;}
</style>
<g id="account">
	<g>
		<path class="st0" d="M10.4,1.9c-2.1,0-4,0.9-5.4,2.3l1.8,1.1c1-0.8,2.2-1.3,3.6-1.3c3.1,0,5.6,2.5,5.6,5.6c0,3.1-2.5,5.6-5.6,5.6
			c-1.4,0-2.7-0.5-3.7-1.4l-1.8,1.1c1.4,1.5,3.3,2.4,5.5,2.4c4.2,0,7.6-3.4,7.6-7.7C18,5.3,14.6,1.9,10.4,1.9z M4.4,5H0.7l4.4,4.6
			l-4.4,4.6h3.7l4.4-4.6L4.4,5z"/>
	</g>
</g>
</svg>
