<?xml version="1.0" encoding="utf-8"?>
<!-- Generator: Adobe Illustrator 21.1.0, SVG Export Plug-In . SVG Version: 6.00 Build 0)  -->
<svg version="1.1" id="eay" xmlns="http://www.w3.org/2000/svg" xmlns:xlink="http://www.w3.org/1999/xlink" x="0px" y="0px"
	 viewBox="0 0 20 20" style="enable-background:new 0 0 20 20;" xml:space="preserve">
<style type="text/css">
	.st0{fill:#A7A7A7;}
	.st1{fill-rule:evenodd;clip-rule:evenodd;fill:#A7A7A7;}
</style>
<g id="lines">
	<g>
		<path class="st0" d="M10,7c1.9,0,4,1.1,6.6,3.6C14.1,12.9,12,14,10,14c-2,0-4.1-1.1-6.6-3.4C6,8.1,8.1,7,10,7 M10,6
			c-2.5,0-5,1.5-8,4.6c3,3,5.5,4.4,8,4.4c2.5,0,5.1-1.5,8-4.4C15,7.5,12.5,6,10,6L10,6z"/>
	</g>
</g>
<g id="center">
	<g>
		<ellipse class="st1" cx="10" cy="10.5" rx="2" ry="2.5"/>
	</g>
</g>
</svg>
