<svg width="24" height="24" xmlns="http://www.w3.org/2000/svg">

 <g>
  <title>background</title>
  <rect fill="none" id="canvas_background" height="26" width="26" y="-1" x="-1"/>
 </g>
 <g>
  <title>Layer 1</title>
  <g stroke="null" id="svg_21">
   <path stroke="null" fill="#000000" id="svg_4" d="m12.000001,1.006135c-6.061914,0 -10.993865,4.931478 -10.993865,10.993865s4.931951,10.993865 10.993865,10.993865s10.993865,-4.931478 10.993865,-10.993865s-4.931951,-10.993865 -10.993865,-10.993865zm0,21.071588c-5.556883,0 -10.077724,-4.52084 -10.077724,-10.077724s4.52084,-10.077724 10.077724,-10.077724s10.077724,4.52084 10.077724,10.077724s-4.52084,10.077724 -10.077724,10.077724z"/>
   <path stroke="null" fill="#000000" id="svg_5" d="m12.32389,8.469595c-0.178951,-0.178951 -0.468828,-0.178951 -0.647736,0l-5.038883,5.03884c-0.178951,0.178951 -0.178951,0.468828 0,0.647736c0.178951,0.178951 0.468828,0.178951 0.647736,0l4.714994,-4.714951l4.714994,4.714994c0.089454,0.089454 0.206693,0.134202 0.32389,0.134202c0.117196,0 0.234393,-0.044748 0.32389,-0.134202c0.178951,-0.178951 0.178951,-0.468828 0,-0.647736l-5.038883,-5.038883z"/>
  </g>
 </g>
</svg>