<?xml version="1.0" encoding="utf-8"?>
<!-- Generator: Adobe Illustrator 21.1.0, SVG Export Plug-In . SVG Version: 6.00 Build 0)  -->
<svg version="1.1" id="menu" xmlns="http://www.w3.org/2000/svg" xmlns:xlink="http://www.w3.org/1999/xlink" x="0px" y="0px"
	 viewBox="0 0 20 20" style="enable-background:new 0 0 20 20;" xml:space="preserve">
<style type="text/css">
	.st0{fill-rule:evenodd;clip-rule:evenodd;}
</style>
<path class="st0" d="M14.2,15.7L4.3,5.8C4,5.4,4,4.7,4.3,4.3l0,0c0.4-0.4,1-0.4,1.4,0l9.9,9.9c0.4,0.4,0.4,1,0,1.4l0,0
	C15.3,16,14.6,16,14.2,15.7z"/>
<path class="st0" d="M4.3,14.2l9.9-9.9c0.4-0.4,1-0.4,1.4,0l0,0c0.4,0.4,0.4,1,0,1.4l-9.9,9.9c-0.4,0.4-1,0.4-1.4,0l0,0
	C4,15.3,4,14.6,4.3,14.2z"/>
</svg>
