<svg width="21" height="21" xmlns="http://www.w3.org/2000/svg">

 <g>
  <title>background</title>
  <rect fill="none" id="canvas_background" height="402" width="582" y="-1" x="-1"/>
 </g>
 <g>
  <title>Layer 1</title>
  <path fill="#bb280f" clip-rule="evenodd" fill-rule="evenodd" id="svg_3" d="m12.8,7.8c-0.3,-0.4 -0.1,-0.2 -0.5,-0.9c-0.5,1 0.4,3.3 0.4,3.6s-0.2,1.6 -1.1,0.8c-0.2,-0.3 -0.9,-1.4 -0.2,-3.4c1.4,-4.3 -1.1,-6.1 -1.1,-6c0.3,0.4 0.4,1.1 0.3,2.4c0,0.8 -0.2,1.2 -0.4,1.6c-0.6,1.1 -1.3,0.6 -0.9,-0.9c-0.3,0.5 -0.6,1 -2.4,2.9c-5.6,7.1 2.3,11 2.2,10.8c-1.8,-1.9 -2,-3 -1.7,-3.8c0.4,-0.7 1.4,-1.7 1.5,-2.3c0.1,0.3 0.4,1.3 0,1.9c-0.5,0.5 1,2.2 1.1,-0.2c0,-0.2 -0.2,-1 -0.3,-1.5c-0.1,-0.2 -0.1,-0.3 -0.1,-0.5c-0.2,-1.2 1.2,-3.4 0.8,-2.4c-0.4,1.2 0,2.5 0.1,2.6c0.1,0.2 2.3,3.2 2.5,0.2c0.2,-0.1 2,2.6 -0.7,6c7.9,-3.9 0.8,-10.5 0.5,-10.9zm-3.5,6.8c0,0.1 0,0.2 0,0.3c-0.1,0 -0.1,0 -0.1,0c-0.2,-0.3 -0.1,-0.4 0,-0.6c0,-0.1 0.1,-0.3 0.1,-0.4c0.2,0.3 0.1,0.5 0,0.7zm0.8,-5.3c-1.1,1 -1.3,-0.4 -1.3,-0.4s-0.2,-0.4 -0.7,0c-0.3,0.3 -3.1,1.9 -1.7,6.6c-1.5,-3 -0.3,-5.6 0.8,-7.2c1.5,-2.1 1.7,-1.4 1.8,-1.3c0.9,0.9 2.1,-0.7 2.4,-2.7c0,0.2 0.3,3 -1.3,5zm3.1,2.1c0.5,-0.9 0.1,-1.8 -0.5,-2.8c0.8,0.7 1.8,2 0.5,2.8z" class="st0"/>
 </g>
</svg>