<?xml version="1.0" encoding="utf-8"?>
<!-- Generator: Adobe Illustrator 21.1.0, SVG Export Plug-In . SVG Version: 6.00 Build 0)  -->
<svg version="1.1" id="Слой_2" xmlns="http://www.w3.org/2000/svg" xmlns:xlink="http://www.w3.org/1999/xlink" x="0px" y="0px"
	 viewBox="0 0 21 21" style="enable-background:new 0 0 21 21;" xml:space="preserve">
<path d="M8.5,3.1c0.8,0.1,1.6,0.4,2.4,0.6c0.4,0.1,0.9,0.3,1.3,0.4c0.7,0.2,1.4,0.5,2,0.8c0.3,0.2,0.5,0.4,0.8,0.6
	c0.3,0.2,0.5,0.5,0.6,0.9C15.9,6.9,16,7.6,16,8.2c0,0.4,0,0.8-0.1,1.2c-0.1,0.4-0.2,0.7-0.4,1c-0.2,0.3-0.4,0.5-0.7,0.7
	c-0.3,0.1-0.6,0.2-0.9,0.2c-0.5,0-0.9-0.1-1.3-0.3c0-1.4,0-2.8,0-4.2c0-0.3,0-0.5,0-0.8c0-0.2-0.1-0.4-0.3-0.5
	c-0.1-0.1-0.2-0.1-0.4-0.2c-0.1,0-0.3,0-0.4,0.1c-0.1,0.2-0.2,0.4-0.2,0.6c0,3.7,0,7.4,0,11.1l-3-0.9C8.5,11.9,8.5,7.5,8.5,3.1z"/>
<path d="M4,12.5c1.3-0.5,2.6-0.9,3.9-1.4c0,0.5,0,1,0,1.5c0,0.1,0,0.1,0,0.2c-1,0.4-2.1,0.7-3.1,1.1c-0.1,0-0.3,0.1-0.4,0.2
	c-0.1,0-0.1,0.1-0.1,0.2c0,0.1,0.1,0.1,0.2,0.2c0.2,0.1,0.5,0.1,0.7,0.1c0.3,0,0.5,0,0.8-0.1c0.2,0,0.3-0.1,0.5-0.2
	c0.4-0.2,0.9-0.3,1.3-0.5c0,0.4,0,0.9,0,1.3c0,0.1,0,0.2,0,0.3c-0.5,0.1-1.1,0.2-1.6,0.2c-1.1,0-2.2-0.1-3.3-0.5
	c-0.3-0.1-0.7-0.2-1-0.5c-0.2-0.1-0.3-0.3-0.4-0.5c-0.1-0.2-0.1-0.3,0-0.5c0.1-0.2,0.2-0.3,0.3-0.4c0.3-0.2,0.7-0.4,1-0.5
	C3.4,12.7,3.7,12.6,4,12.5z"/>
<path d="M14.5,11.9c0.3,0,0.6,0,0.9-0.1c1,0,2,0.1,2.9,0.4c0.2,0.1,0.4,0.1,0.5,0.2c0.3,0.1,0.6,0.3,0.9,0.5
	c0.2,0.1,0.3,0.3,0.3,0.6c0,0.2-0.1,0.4-0.2,0.5c-0.2,0.2-0.5,0.4-0.8,0.6c-0.3,0.1-0.6,0.3-1,0.4l-6,2.1c0-0.6,0-1.1,0-1.7
	c0,0,0-0.1,0-0.1l4.5-1.6c0.2-0.1,0.4-0.1,0.6-0.3c0.1,0,0.1-0.1,0.1-0.2c0-0.1-0.1-0.1-0.2-0.2c-0.2-0.1-0.5-0.1-0.7-0.1
	c-0.4,0-0.8,0.1-1.1,0.2c-1.1,0.4-2.2,0.8-3.2,1.1c0-0.6,0-1.2,0-1.8C12.8,12.1,13.7,12,14.5,11.9z"/>
</svg>
