<svg xmlns="http://www.w3.org/2000/svg" width="20" height="20" viewBox="0 0 20 20">
  <metadata><?xpacket begin="﻿" id="W5M0MpCehiHzreSzNTczkc9d"?>
<x:xmpmeta xmlns:x="adobe:ns:meta/" x:xmptk="Adobe XMP Core 5.6-c138 79.159824, 2016/09/14-01:09:01        ">
   <rdf:RDF xmlns:rdf="http://www.w3.org/1999/02/22-rdf-syntax-ns#">
      <rdf:Description rdf:about=""/>
   </rdf:RDF>
</x:xmpmeta>
                                                                                                    
                                                                                                    
                                                                                                    
                                                                                                    
                                                                                                    
                                                                                                    
                                                                                                    
                                                                                                    
                                                                                                    
                                                                                                    
                                                                                                    
                                                                                                    
                                                                                                    
                                                                                                    
                                                                                                    
                                                                                                    
                                                                                                    
                                                                                                    
                                                                                                    
                                                                                                    
                           
<?xpacket end="w"?></metadata>
<defs>
    <style>
      .cls-1 {
        fill: #141414;
        fill-rule: evenodd;
      }
    </style>
  </defs>
  <path id="search" class="cls-1" d="M1849.71,56.3a1.627,1.627,0,0,1-2.25.406l-6.62-4.559a1.619,1.619,0,0,1-.7-1.374,5.865,5.865,0,0,1-10.04-2.939,5.729,5.729,0,0,1,.94-4.364A5.9,5.9,0,0,1,1839.2,42a5.829,5.829,0,0,1,1.93,7.358,1.612,1.612,0,0,1,1.54.159l6.63,4.559A1.606,1.606,0,0,1,1849.71,56.3Zm-9.83-10.24a3.994,3.994,0,0,0-1.69-2.614,4.11,4.11,0,0,0-5.69,1.028,4.053,4.053,0,0,0,1.04,5.656,4.1,4.1,0,0,0,5.68-1.028A3.965,3.965,0,0,0,1839.88,46.062Z" transform="translate(-1830 -38.984)"/>
</svg>
