<svg width="14.999999999999998" height="14.999999999999998" xmlns="http://www.w3.org/2000/svg">

 <g>
  <title>background</title>
  <rect fill="none" id="canvas_background" height="17" width="17" y="-1" x="-1"/>
 </g>
 <g>
  <title>Layer 1</title>
  <path stroke="null" id="svg_2" fill-rule="evenodd" clip-rule="evenodd" fill="#2CA7E0" d="m14.815153,2.77264c-0.541258,0.240069 -1.122911,0.402289 -1.733413,0.475212c0.62304,-0.373536 1.101674,-0.964976 1.326998,-1.669798c-0.583188,0.34587 -1.229128,0.597069 -1.916615,0.732391c-0.550533,-0.58661 -1.33493,-0.953078 -2.203027,-0.953078c-1.666791,0 -3.018224,1.351305 -3.018224,3.018096c0,0.23655 0.026674,0.466896 0.078168,0.687806c-2.508374,-0.125887 -4.732351,-1.327446 -6.22093,-3.153483c-0.259802,0.445755 -0.408654,0.964176 -0.408654,1.517332c0,1.04711 0.532814,1.970923 1.34267,2.51218c-0.494754,-0.015704 -0.960146,-0.151442 -1.367041,-0.377534c-0.000288,0.012634 -0.000288,0.025203 -0.000288,0.037996c0,1.46232 1.040393,2.682109 2.421091,2.959471c-0.253246,0.068957 -0.519893,0.105898 -0.795143,0.105898c-0.194492,0 -0.383547,-0.018966 -0.567868,-0.054148c0.384091,1.199 1.498686,2.071671 2.819446,2.095978c-1.032941,0.809568 -2.33432,1.292008 -3.748409,1.292008c-0.243619,0 -0.483847,-0.014265 -0.719982,-0.042218c1.335697,0.85636 2.922178,1.356103 4.626581,1.356103c5.551514,0 8.587361,-4.599044 8.587361,-8.587457c0,-0.130845 -0.002942,-0.260986 -0.008732,-0.390455c0.589745,-0.425509 1.101418,-0.957076 1.50601,-1.562301z"/>
 </g>
</svg>