<svg width="18" height="18" xmlns="http://www.w3.org/2000/svg">
 <title/>

 <g>
  <title>background</title>
  <rect fill="none" id="canvas_background" height="20" width="20" y="-1" x="-1"/>
 </g>
 <g>
  <title>Layer 1</title>
  <path stroke="null" id="svg_1" fill="#577fa8" d="m17.190202,4.424557l-2.890275,0a0.652466,0.652466 0 0 0 -0.574914,0.343936s-1.152753,2.122971 -1.523032,2.838029c-0.99613,1.923588 -1.641191,1.319706 -1.641191,0.426952l0,-3.07823a0.969875,0.969875 0 0 0 -0.969875,-0.969875l-2.1731,0a1.740763,1.740763 0 0 0 -1.538035,0.71368s1.103467,-0.178416 1.103467,1.30841c0,0.368689 0.01899,1.429318 0.036294,2.31891a0.640713,0.640713 0 0 1 -1.118171,0.442973a18.920451,18.920451 0 0 1 -2.194356,-3.990976a0.608837,0.608837 0 0 0 -0.553736,-0.353809c-0.626808,0 -1.88111,0 -2.625999,0a0.446214,0.446214 0 0 0 -0.421348,0.60152c0.79738,2.187206 4.232239,9.060605 8.152787,9.060605l1.650159,0a0.651921,0.651921 0 0 0 0.651912,-0.651921l0,-0.99642a0.640599,0.640599 0 0 1 1.079242,-0.466856l1.975123,1.855743a0.956647,0.956647 0 0 0 0.655013,0.259454l2.593674,0c1.250938,0 1.250938,-0.868045 0.568906,-1.539739c-0.479988,-0.472715 -2.212029,-2.298382 -2.212029,-2.298382a0.89473,0.89473 0 0 1 -0.068838,-1.162468c0.55985,-0.736746 1.475565,-1.942746 1.863912,-2.459388c0.530828,-0.706161 1.491551,-2.202148 0.17441,-2.202148z"/>
 </g>
</svg>