<?xml version="1.0" encoding="utf-8"?>
<!-- Generator: Adobe Illustrator 21.1.0, SVG Export Plug-In . SVG Version: 6.00 Build 0)  -->
<svg version="1.1" id="Слой_2" xmlns="http://www.w3.org/2000/svg" xmlns:xlink="http://www.w3.org/1999/xlink" x="0px" y="0px"
	 viewBox="0 0 21 21" style="enable-background:new 0 0 21 21;" xml:space="preserve">
<style type="text/css">
	.st0{fill:#030104;}
</style>
<g>
	<path class="st0" d="M6.9,5.1C6.9,5.1,6.9,5.1,6.9,5.1C6.9,5.1,7,5,7,5c1-0.7,2.2-1,3.5-1c1.2,0,2.4,0.3,3.3,0.9
		c0.1,0,0.3,0.2,0.4,0.3v0c-0.9-1-3.7,1.2-3.7,1.2C9.5,5.7,8.7,5.2,8,5C7.5,4.8,7.1,5,6.9,5.1z M15.3,6.1C15.2,6.1,15.2,6,15.3,6.1
		c-0.3-0.4-0.6-0.4-0.9-0.4c-0.2,0.1-1.3,0.5-2.7,1.8c0,0,1.5,1.5,2.5,3c0.9,1.5,1.5,2.7,1.2,4.4c1.1-1.2,1.7-2.7,1.7-4.4
		C17,8.8,16.3,7.2,15.3,6.1z M12.9,11.1c-0.4-0.5-1-1.1-1.9-2c-0.2-0.2-0.4-0.4-0.6-0.6c0,0-0.3,0.3-0.7,0.7v0
		c-0.5,0.5-1.1,1.2-1.5,1.5c-0.6,0.7-2.5,2.8-2.6,4c0,0-0.4-1,0.5-3.2c0.6-1.4,2.4-3.6,3.1-4.3c0,0-0.7-0.7-1.5-1.3l0,0c0,0,0,0,0,0
		C7.3,5.9,6.9,5.7,6.5,5.7C6,5.7,5.8,6.1,5.8,6.1C4.7,7.2,4,8.8,4,10.5c0,3.6,2.9,6.5,6.5,6.5c1.9,0,3.6-0.8,4.8-2.1
		c0,0-0.1-0.9-1-2.1C14.1,12.5,13.3,11.6,12.9,11.1z"/>
</g>
</svg>
