<?xml version="1.0" encoding="utf-8"?>
<!-- Generator: Adobe Illustrator 21.1.0, SVG Export Plug-In . SVG Version: 6.00 Build 0)  -->
<svg version="1.1" id="Слой_2" xmlns="http://www.w3.org/2000/svg" xmlns:xlink="http://www.w3.org/1999/xlink" x="0px" y="0px"
	 viewBox="0 0 21 21" style="enable-background:new 0 0 21 21;" xml:space="preserve">
<path d="M5.5,7C3.6,7,2,8.6,2,10.5S3.6,14,5.5,14S9,12.4,9,10.5S7.4,7,5.5,7z M4.5,11.5c-0.6,0-1-0.4-1-1s0.4-1,1-1s1,0.4,1,1
	S5.1,11.5,4.5,11.5z"/>
<polygon points="9,9 17,9 19,10 17,12 16.5,12.5 15.5,12 14,12 13.5,12.5 12.5,12 9,11.5 8,11.5 8,9 "/>
</svg>
