<?xml version="1.0" encoding="utf-8"?>
<!-- Generator: Adobe Illustrator 21.1.0, SVG Export Plug-In . SVG Version: 6.00 Build 0)  -->
<svg version="1.1" id="logout" xmlns="http://www.w3.org/2000/svg" xmlns:xlink="http://www.w3.org/1999/xlink" x="0px" y="0px"
	 viewBox="0 0 20 20" style="enable-background:new 0 0 20 20;" xml:space="preserve">
<style type="text/css">
	.st0{fill-rule:evenodd;clip-rule:evenodd;fill:#BC2918;}
	.st1{fill-rule:evenodd;clip-rule:evenodd;fill:#BB280F;}
</style>
<path class="st0" d="M9.9,3c-2,0-3.8,0.8-5,2.1l1.8,1C7.5,5.4,8.7,4.9,10,4.9c2.8,0,5.1,2.3,5.1,5.1c0,2.8-2.3,5.1-5.1,5.1
	c-1.3,0-2.5-0.5-3.4-1.3l-1.8,1c1.3,1.3,3.1,2.1,5,2.1c3.9,0,7-3.1,7-7S13.7,3,9.9,3z"/>
<polygon class="st1" points="10.4,6 7.2,6 3.4,10 7.2,14 10.4,14 6.6,10 "/>
</svg>
