<svg width="20" height="20" xmlns="http://www.w3.org/2000/svg" preserveAspectRatio="xMidYMid meet">

 <g>
  <title>background</title>
  <rect fill="none" id="canvas_background" height="22" width="22" y="-1" x="-1"/>
 </g>
 <g>
  <title>Layer 1</title>
  <g stroke="null" id="svg_4">
   <path stroke="null" id="svg_2" fill="#000000" d="m14.571016,10.695699c-0.302292,-0.398964 -1.740203,-1.9051 -1.119791,-3.539239c0,0 -1.468218,1.185529 -0.917105,2.90301c-0.254419,-0.382017 -2.670242,-1.685181 -2.4691,-6.491895c0,0 -0.152497,0.155518 -0.386068,0.428473l0,12.329018c1.332129,-0.038481 2.335134,-0.452798 2.335134,-0.452798s3.870721,-2.00858 2.556931,-5.176569z"/>
   <path stroke="null" id="svg_3" fill="#000000" d="m7.191025,9.362091c0,0 0.397899,3.208523 1.724093,3.722433c0,0 -2.652189,-0.641986 -3.182787,-3.851112c-0.132298,0.385232 -3.749778,3.87544 1.316142,6.567439c0.93473,0.430068 1.899016,0.545075 2.73784,0.521551l0,-12.432976c-0.816507,0.924476 -2.595288,3.198068 -2.595288,5.472665z"/>
  </g>
 </g>
</svg>